<svg width="300" height="284" version="1.1" xmlns="http://www.w3.org/2000/svg" desc="Created with imagetracer.js version 1.2.6" ><path fill="rgb(0,79,163)" stroke="rgb(0,79,163)" stroke-width="1" opacity="0.9803921568627451" d="M 160.5 19 Q 173.1 18.4 177 26.5 L 179 31.5 L 179 63 L 148 63 L 148 31.5 Q 149.8 24.3 155.5 21 L 160.5 19 Z " /><path fill="rgb(0,79,163)" stroke="rgb(0,79,163)" stroke-width="1" opacity="0.9803921568627451" d="M 133.5 66 L 204.5 66 L 213 71.5 Q 217.3 75.7 216 85.5 L 208.5 95 L 202.5 97 L 135.5 97 Q 125 99.5 119 106.5 Q 111.1 114.1 112 130.5 Q 114.7 142.8 123.5 149 L 137.5 155 L 167.5 155 L 176 160.5 L 179 166.5 L 179 173.5 L 172.5 183 L 164.5 186 L 137.5 186 L 119.5 182 Q 105.3 176.3 96 165.5 Q 88.5 157 84 145.5 L 81 130.5 L 81 120.5 L 83 109.5 L 89 95.5 L 104.5 78 Q 115.9 68.9 133.5 66 Z " /><path fill="rgb(0,79,163)" stroke="rgb(0,79,163)" stroke-width="1" opacity="0.9803921568627451" d="M 148 99 L 179 99 L 179 159.5 L 177 158.5 Q 177.8 156.3 175.5 157 L 172.5 154 L 166.5 152 L 148 152 L 148 99 Z " /><path fill="rgb(0,79,163)" stroke="rgb(0,79,163)" stroke-width="1" opacity="0.9803921568627451" d="M 50.5 216 L 57 217 Q 58.5 223.3 54.5 225 Q 49 226 48 222.5 Q 47 217 50.5 216 Z " /><path fill="rgb(0,79,163)" stroke="rgb(0,79,163)" stroke-width="1" opacity="0.9803921568627451" d="M 106.5 216 Q 112 215 113 218.5 Q 114 224 110.5 225 Q 105 226 104 222.5 Q 102.8 216.4 105.5 217 L 106.5 216 Z " /><path fill="rgb(0,79,163)" stroke="rgb(0,79,163)" stroke-width="1" opacity="0.9803921568627451" d="M 32 218 L 39.5 218 L 40 218.5 L 40 261 L 32 261 L 32 257.5 L 28.5 260 L 20.5 262 L 10 257 Q 5.6 251.6 7 239.5 L 11 232 L 21.5 228 L 26.5 229 L 31.5 233 L 32 218 Z M 23 235 L 20 236 L 15 242 L 16 251 L 23 255 L 28 254 L 32 249 L 31 240 Q 29 235 23 235 Z " /><path fill="rgb(0,79,163)" stroke="rgb(0,79,163)" stroke-width="1" opacity="0.9803921568627451" d="M 183 218 L 190.5 218 L 191 218.5 L 191 261 L 183.5 261 L 183 260.5 L 183 218 Z " /><path fill="rgb(0,79,163)" stroke="rgb(0,79,163)" stroke-width="1" opacity="0.9803921568627451" d="M 122 221 L 130 221 L 130 229 L 137 229 L 137 235 L 130 235 L 130 252.5 Q 131.6 255.5 137 254 L 137 261 L 128.5 261 L 124 259 L 122 254.5 L 122 235 L 118 235 L 118 229 L 122 229 L 122 221 Z " /><path fill="rgb(0,79,163)" stroke="rgb(0,79,163)" stroke-width="1" opacity="0.9803921568627451" d="M 275 221 L 283 221 L 283 229 L 291 229 L 291 235 L 283 235 L 283 252.5 Q 284.9 255.8 291 254 L 291 261 L 281.5 261 L 276 256.5 L 275 252.5 L 275 235 L 271 235 L 271 229 L 275 229 L 275 221 Z " /><path fill="rgb(0,79,163)" stroke="rgb(0,79,163)" stroke-width="1" opacity="0.9803921568627451" d="M 76.5 228 L 82.5 229 L 87.5 233 L 88 229 L 95.5 229 L 96 229.5 L 96 266.5 L 89.5 275 Q 84.8 278.3 75.5 277 Q 68.3 275.2 65 269.5 L 64 265 L 71.5 265 L 73 266.5 L 74.5 269 L 83.5 270 Q 89.6 267.6 88 257.5 L 84.5 260 L 76.5 262 L 68.5 259 L 66 256.5 Q 61.2 251.3 63 239.5 L 67.5 232 L 76.5 228 Z M 79 235 L 76 236 L 71 242 L 72 251 L 79 255 L 84 254 L 88 249 L 87 240 Q 85 235 79 235 Z " /><path fill="rgb(0,79,163)" stroke="rgb(0,79,163)" stroke-width="1" opacity="0.9803921568627451" d="M 155.5 228 Q 162.9 228.6 166.5 233 L 167 229 L 174.5 229 L 175 229.5 L 175 261 L 167 261 L 167 257.5 L 164.5 259 Q 161.3 262.3 154.5 262 Q 147.1 260.9 144 255.5 L 141 247.5 L 141 242.5 Q 142.2 234.7 147.5 231 L 155.5 228 Z M 158 235 L 153 237 L 149 244 Q 149 250 152 253 L 158 255 L 164 253 L 167 248 Q 168 241 165 239 L 158 235 Z " /><path fill="rgb(0,79,163)" stroke="rgb(0,79,163)" stroke-width="1" opacity="0.9803921568627451" d="M 212.5 228 L 221.5 230 L 227 235.5 Q 230.3 239.4 229 247 L 205.5 247 L 205 248.5 L 208.5 254 L 215.5 255 L 220.5 251 L 228 251 Q 227.2 257.1 221.5 260 L 212.5 262 L 203.5 259 L 200 255.5 Q 195.9 251.1 197 241.5 Q 198.5 234.5 203.5 231 L 212.5 228 Z M 211 235 L 209 236 L 205 242 L 221 242 L 220 239 Q 218 234 211 235 Z " /><path fill="rgb(0,79,163)" stroke="rgb(0,79,163)" stroke-width="1" opacity="0.9803921568627451" d="M 49 229 L 56.5 229 L 57 229.5 L 57 261 L 49.5 261 L 49 260.5 L 49 229 Z " /><path fill="rgb(0,79,163)" stroke="rgb(0,79,163)" stroke-width="1" opacity="0.9803921568627451" d="M 104 229 L 111.5 229 L 112 229.5 L 112 261 L 104.5 261 L 104 260.5 L 104 229 Z " /><path fill="rgb(0,79,163)" stroke="rgb(0,79,163)" stroke-width="1" opacity="0.9803921568627451" d="M 235 229 L 243 229 L 243 232.5 L 246.5 230 Q 250 227.5 257.5 229 L 264 233.5 L 266 238.5 L 266 261 L 258 261 L 258 240.5 L 254.5 236 L 249.5 235 L 245 237.5 L 243 242.5 L 243 261 L 235.5 261 L 235 260.5 L 235 229 Z " /><path fill="rgb(0,0,0)" stroke="rgb(0,0,0)" stroke-width="1" opacity="0" d="M 0 0 L 300 0 L 300 284 L 0 284 L 0 0 Z M 161 19 L 156 21 Q 150 24 148 32 L 148 63 L 179 63 L 179 32 L 177 27 Q 173 18 161 19 Z M 134 66 Q 116 69 105 78 L 89 96 L 83 110 L 81 121 L 81 131 L 84 146 Q 88 157 96 166 Q 105 176 120 182 L 138 186 L 165 186 L 173 183 L 179 174 L 179 167 L 176 161 L 168 155 L 138 155 L 124 149 Q 115 143 112 131 Q 111 114 119 107 Q 125 100 136 97 L 203 97 L 209 95 L 216 86 Q 217 76 213 72 L 205 66 L 134 66 Z M 148 99 L 148 152 L 167 152 L 173 154 L 176 157 Q 178 156 177 159 L 179 160 L 179 99 L 148 99 Z M 51 216 Q 47 217 48 223 Q 49 226 55 225 Q 59 223 57 217 L 51 216 Z M 107 216 L 106 217 Q 103 216 104 223 Q 105 226 111 225 Q 114 224 113 219 Q 112 215 107 216 Z M 32 218 L 32 233 L 27 229 L 22 228 L 11 232 L 7 240 Q 6 252 10 257 L 21 262 L 29 260 L 32 258 L 32 261 L 40 261 L 40 219 L 40 218 L 32 218 Z M 183 218 L 183 261 L 184 261 L 191 261 L 191 219 L 191 218 L 183 218 Z M 122 221 L 122 229 L 118 229 L 118 235 L 122 235 L 122 255 L 124 259 L 129 261 L 137 261 L 137 254 Q 132 255 130 253 L 130 235 L 137 235 L 137 229 L 130 229 L 130 221 L 122 221 Z M 275 221 L 275 229 L 271 229 L 271 235 L 275 235 L 275 253 L 276 257 L 282 261 L 291 261 L 291 254 Q 285 256 283 253 L 283 235 L 291 235 L 291 229 L 283 229 L 283 221 L 275 221 Z M 77 228 L 68 232 L 63 240 Q 61 251 66 257 L 69 259 L 77 262 L 85 260 L 88 258 Q 90 268 84 270 L 75 269 L 73 267 L 72 265 L 64 265 L 65 270 Q 68 275 76 277 Q 85 278 90 275 L 96 267 L 96 230 L 96 229 L 88 229 L 88 233 L 83 229 L 77 228 Z M 156 228 L 148 231 Q 142 235 141 243 L 141 248 L 144 256 Q 147 261 155 262 Q 161 262 165 259 L 167 258 L 167 261 L 175 261 L 175 230 L 175 229 L 167 229 L 167 233 Q 163 229 156 228 Z M 213 228 L 204 231 Q 199 235 197 242 Q 196 251 200 256 L 204 259 L 213 262 L 222 260 Q 227 257 228 251 L 221 251 L 216 255 L 209 254 L 205 249 L 206 247 L 229 247 Q 230 239 227 236 L 222 230 L 213 228 Z M 49 229 L 49 261 L 50 261 L 57 261 L 57 230 L 57 229 L 49 229 Z M 104 229 L 104 261 L 105 261 L 112 261 L 112 230 L 112 229 L 104 229 Z M 235 229 L 235 261 L 236 261 L 243 261 L 243 243 L 245 238 L 250 235 L 255 236 L 258 241 L 258 261 L 266 261 L 266 239 L 264 234 L 258 229 Q 250 228 247 230 L 243 233 L 243 229 L 235 229 Z " /><path fill="rgb(0,0,0)" stroke="rgb(0,0,0)" stroke-width="1" opacity="0" d="M 22.5 235 Q 28.9 235.1 31 239.5 L 32 248.5 L 27.5 254 L 22.5 255 L 16 250.5 L 15 241.5 L 19.5 236 L 22.5 235 Z " /><path fill="rgb(0,0,0)" stroke="rgb(0,0,0)" stroke-width="1" opacity="0" d="M 78.5 235 Q 84.9 235.1 87 239.5 L 88 248.5 L 83.5 254 L 78.5 255 L 72 250.5 L 71 241.5 L 75.5 236 L 78.5 235 Z " /><path fill="rgb(0,0,0)" stroke="rgb(0,0,0)" stroke-width="1" opacity="0" d="M 157.5 235 L 165 238.5 Q 167.8 241.2 167 247.5 L 163.5 253 L 157.5 255 L 152 253 Q 149.3 250 149 243.5 L 152.5 237 L 157.5 235 Z " /><path fill="rgb(0,0,0)" stroke="rgb(0,0,0)" stroke-width="1" opacity="0" d="M 210.5 235 Q 218.1 233.9 220 238.5 L 221 242 L 205 241.5 L 208.5 236 L 210.5 235 Z " /></svg>